<?xml version="1.0" encoding="UTF-8"?>
<!-- Generator: Adobe Illustrator 27.5.0, SVG Export Plug-In . SVG Version: 6.00 Build 0)  -->
<svg version="1.1" id="Layer_1" xmlns="http://www.w3.org/2000/svg" xmlns:xlink="http://www.w3.org/1999/xlink" x="0px" y="0px" viewBox="0 0 357.6 194" style="enable-background:new 0 0 357.6 194;" xml:space="preserve">
<style type="text/css">
	.st0{fill:#BA2529;}
	.st1{fill:#2959A9;}
	.st2{fill:#00AEEF;}
</style>
<g>
	<g>
		<g>
			<path class="st0" d="M10.8,178.5c-0.9-1.1-1.3-2.6-1.3-4.4v-10.3c0-1.3,0.7-1.8,2-1.8s2,0.7,2,2v9c0,1.5,0.2,2.6,0.9,3.3     c0.7,0.7,1.5,0.9,3.1,0.9h10.9c2.2,0,3.5-0.9,4.2-2.4c0.7-1.8,0.9-3.3,0.9-4.8c0-1.8-0.2-3.5-0.7-5c-0.4-1.5-1.5-3.1-3.1-4.4     c0.7-0.7,1.5-0.9,2.4-0.9c2,0,3.3,0.9,4.2,2.6c0.9,1.8,1.3,3.9,1.3,6.3c0,3.1-0.7,5.9-2.2,8.1c-1.3,2.2-3.9,3.5-7.2,3.5H15.6     C13.2,180.1,11.7,179.6,10.8,178.5z M20.4,187.7c-0.4-0.4-0.9-1.1-0.9-1.8s0.2-1.3,0.9-1.8c0.4-0.4,1.1-0.7,2-0.7     c0.7,0,1.3,0.2,1.8,0.7c0.4,0.4,0.9,1.1,0.9,1.8s-0.2,1.3-0.9,1.8c-0.4,0.4-1.1,0.7-1.8,0.7C21.5,188.4,20.9,188.2,20.4,187.7z"/>
			<path class="st0" d="M54.6,180.1h-4.4v3.1c0,0.9-0.2,1.8-0.7,2.8c-0.4,1.1-1.1,2-2.2,2.6c-1.1,0.9-2.4,1.1-3.9,1.1     c-1.5,0-2.6-0.2-3.5-0.9c-0.9-0.4-1.3-1.1-1.8-1.5c0.9,0.2,1.8,0.4,2.8,0.4s2.2-0.2,2.8-0.7c0.9-0.4,1.3-1.1,1.8-1.8     s0.4-1.3,0.4-2V161c0-1.1,0.7-1.8,2-1.8c0.7,0,1.1,0.2,1.5,0.4c0.4,0.2,0.7,0.7,0.7,1.3v15.8h4.4L54.6,180.1L54.6,180.1z"/>
			<path class="st0" d="M54.6,177h7v3.1h-7V177z"/>
			<path class="st0" d="M87.2,177v3.1h-6.6c-0.9,0-1.8,0-2.4-0.2c-0.7,0.2-1.3,0.2-2.2,0.2H61.4V177h11.2l-10.1-12.9     c0.2-0.7,0.9-1.3,1.5-2.2c0.9-0.7,2-1.3,3.3-1.8s3.1-0.7,5-0.7c3.7,0,6.6,0.9,9,2.4s3.5,4.2,3.5,7.2c0,1.1-0.2,2.4-0.7,3.9     c-0.4,1.5-1.1,2.8-2,3.9L87.2,177L87.2,177z M66.8,164.5l9.6,12.3c1.5-0.4,2.6-1.5,3.3-3.1s0.9-2.8,0.9-4.4c0-2.2-0.7-3.7-2.2-5     c-1.5-1.3-3.5-1.8-6.1-1.8C70.1,162.8,68.1,163.2,66.8,164.5z M72.5,156.2c-0.4-0.4-0.9-1.1-0.9-1.8s0.2-1.3,0.9-1.8     c0.7-0.4,1.1-0.7,2-0.7c0.7,0,1.3,0.2,1.8,0.7s0.9,1.1,0.9,1.8s-0.2,1.3-0.9,1.8s-1.1,0.7-1.8,0.7     C73.6,156.9,73,156.6,72.5,156.2z"/>
			<path class="st0" d="M87.2,177h7v3.1h-7V177z"/>
			<path class="st0" d="M118,177v3.1H115c-1.8,0-3.1-0.4-4.2-1.1c-1.3,0.7-2.8,1.1-4.8,1.1c-1.8,0-3.5-0.2-4.8-0.9     c-0.4,0.2-0.9,0.4-1.5,0.7c-0.4,0.2-1.3,0.2-2.4,0.2H94V177H97v-10.7c0-2.6,0.7-4.4,2.2-5.3c1.5-0.9,3.5-1.5,6.1-1.5     c2,0,3.5,0.2,4.8,0.9c1.3,0.7,2.2,1.5,2.8,3.1s1.1,3.7,1.1,6.6c0,3.3-0.4,5.5-1.5,7L118,177L118,177z M109.3,174.8     c0.7-1.5,1.1-3.1,1.1-4.8c0-4.8-1.5-7.2-4.8-7.2c-2.6,0-4.2,1.5-4.2,4.8v9.6h3.1C106.9,177,108.4,176.3,109.3,174.8z"/>
			<path class="st0" d="M118,177h2.8c0.9,0,1.3-0.2,1.8-0.7s0.7-1.1,0.7-1.8s0.2-1.5,0.2-2.6v-13.6c0-1.3-0.2-2.4-0.9-3.3     c-0.7-0.9-1.1-1.5-1.8-2c0.2-0.2,0.7-0.4,1.1-0.7c0.7-0.2,1.1-0.4,1.8-0.4c1.1,0,1.8,0.4,2.6,1.1c0.7,0.7,1.1,2,1.1,3.7V172     c0,2.6-0.7,4.8-2,6.1c-1.3,1.3-2.8,2.2-5,2.2h-2.6V177H118z"/>
			<path class="st0" d="M135.8,179.4c-0.2-0.4-0.4-1.1-0.4-2v-19c0-1.3-0.2-2.4-0.9-3.3c-0.4-0.9-1.1-1.5-1.8-2     c0.2-0.2,0.7-0.4,1.1-0.7c0.4-0.2,1.1-0.4,1.8-0.4c1.1,0,1.8,0.4,2.6,1.1c0.7,0.7,1.1,2,1.1,3.7v20.6c0,0.9-0.2,1.5-0.4,2     c-0.2,0.4-0.9,0.7-1.8,0.7C136.4,180.1,136,179.8,135.8,179.4z"/>
		</g>
	</g>
	<g>
		<g>
			<path class="st1" d="M353.4,121.2h-2.2c-5.7,0-10.5-4.6-10.7-10.5v-0.4l0,0V31.7c0,0-11.2,2.2-10.9,10.9v70.5v0.2v1.1     c0,4.6-0.7,7.7-8.1,11.6c-68.5,35.5-108.1,0.4-108.1,0.4c24.7,33.1,61.7,31.3,110.5,4.6c9.9-5.3,20.1-8.1,29.8-8.3L353.4,121.2z"/>
			<path class="st1" d="M64.2,99.1c2.2,0,4.2-0.4,5.9-1.5c1.8-0.9,3.5-2.2,4.8-3.9c1.3-1.8,2.4-3.5,3.3-5.9c0.9-2.2,1.1-4.6,1.1-7.2     V48.1h-12v30.4c0,2-0.2,3.7-0.7,5.3c-0.4,1.5-1.1,2.8-2,3.7c-0.9,1.1-2,1.8-3.1,2.4c-1.1,0.4-2.4,0.9-3.9,0.9     c-1.3,0-2.6-0.2-3.9-0.7c-1.5-0.4-2.8-1.1-4.4-1.8c-1.5-0.9-2.8-1.8-4.4-2.8c-1.5-1.1-2.8-2.2-4.2-3.5V56.6     c0-4.8-3.7-8.5-8.5-8.5h-3.5v33.1C28.7,98,9.9,107.4,4.7,110c-1.1,0.4-0.7,2.2,0.4,2.2c13.6-0.9,23-7.9,28.7-14.7     c3.5-3.9,5.7-7.9,6.8-10.1v-0.9l0.2,0.2c3.5,3.9,7.2,7,11.2,9C56.1,98,60,99.1,64.2,99.1"/>
			<path class="st1" d="M72.3,42.4c3.9,0,7.2-3.3,7.2-7.2s-3.3-7.2-7.2-7.2c-3.9,0-7.2,3.3-7.2,7.2C65.1,39.3,68.4,42.4,72.3,42.4"/>
			<path class="st1" d="M255.9,114.2c0,3.9,3.3,7.2,7.2,7.2s7.2-3.3,7.2-7.2c0-3.9-3.3-7.2-7.2-7.2S255.9,110.2,255.9,114.2"/>
			<path class="st1" d="M33.8,42.4c3.9,0,7.2-3.3,7.2-7.2s-3.3-7.2-7.2-7.2s-7.2,3.3-7.2,7.2C26.6,39.3,29.8,42.4,33.8,42.4"/>
			<path class="st1" d="M298.2,102.8c-0.2,15.3,17.7,20.4,16.4,19.7c-2.4-3.5-5.5-15.1-5.3-27.4c0.4-23,0-41.6,0-63.7     c-5.3-1.1-11.4,6.3-11.6,11.2C297.3,68.7,298.6,74.1,298.2,102.8"/>
			<path class="st1" d="M101.8,59.5c0.4-1.8,1.1-3.3,2-4.8c1.5-2.8,3.9-5.3,6.8-6.6c4.6-2,10.1-1.1,14,2c3.9,2.8,6.6,7.4,7.9,12.3     c1.8,6.6,2.4,14,0.4,20.8c-2,7-7.4,13.8-15.3,12.9c-3.9-0.4-7.4-2.6-10.1-5.5c-3.7-4.2-5.5-9.6-6.6-15.1     C100.5,70.2,100.3,64.5,101.8,59.5 M96.8,92.1c2.6,2.6,5.7,4.6,9.2,5.9c3.5,1.5,7.4,2.2,11.6,2.2c1.3,0,2.4,0,3.5-0.2     c-6.3,5.5-13.4,9-15.8,10.3c-1.1,0.4-0.7,2.2,0.4,2.2c12.3-0.7,23.4-7.2,30.6-17.1c1.1-1.5,2-0.7,3.5-0.2     c1.5,0.7,3.3,1.1,4.8,1.5c3.3,0.9,6.6,1.8,10.1,2.4c46.2,10.3,77.5-8.1,130.2-5.3l1.3-2.4c1.8-2.8,0.2-6.6-3.1-7.4     c-2.4-0.4-5-0.9-7.7-1.3c2.4-2.4,4.4-4.8,5.7-7.2c2-3.7,2.8-7.4,2.8-11.8c0-2.2-0.7-4.6-1.8-6.8c-1.1-2.2-2.4-4.2-4.2-5.9     c-1.8-1.8-3.7-3.1-6.1-3.9s-4.8-1.3-7.4-0.9c-14.9,1.3-29.6,7-44.4,2.2c0,3.5,1.1,7,3.3,9.9s5.3,4.6,8.8,4.6     c10.1,0.2,20.4-2.6,30.4-3.7c2.2-0.2,3.9,0,5.5,0.2c1.5,0.4,2.8,1.1,3.9,2.2c1.1,0.9,2,2,2.4,3.3c0.7,1.3,0.9,2.6,0.9,4.2     c0,1.3-0.2,2.6-0.7,4.2c-0.4,1.5-1.1,2.8-1.8,4.4c-0.9,1.5-1.8,3.1-2.8,4.6c0,0.2-0.2,0.2-0.2,0.4c-35.7-2.6-66.5,12.3-114,7.7     c-5-0.4-9.9-1.5-14.7-2.6c3.3-5.3,5-11.2,5-17.5c0-3.7-0.7-7.2-2.2-10.5c-1.5-3.3-3.5-6.1-6.1-8.5c-2.6-2.4-5.7-4.4-9.2-5.7     c-3.5-1.3-7.4-2.2-11.6-2.2c-4.2,0-8.1,0.7-11.6,2.2c-3.5,1.5-6.6,3.5-9.2,6.3c-2.6,2.6-4.6,5.7-6.1,9.4     c-1.5,3.5-2.2,7.4-2.2,11.4c0,3.9,0.7,7.4,2.2,10.9C92.2,86.6,94.2,89.4,96.8,92.1"/>
			<path class="st2" d="M154.4,117c-23.2-13.1-50.8,6.1-77.7,6.1c-10.5,0-17.5-2.4-25.2-5.3c7.4,5.9,15.8,9.4,25,10.3     C105.1,131.5,125.3,112.4,154.4,117"/>
			<path class="st2" d="M165.8,118.8c-17.5,6.1-33.1,11.4-55.8,10.3c26.3,10.1,53.6-2.6,63.9-5.9c11.2-3.3,24.7-4.8,37-0.2     C199,112.9,180.6,114.6,165.8,118.8"/>
		</g>
		<polygon points="224.6,4.3 233.8,26.6 244.1,26.6 234.7,4.3   "/>
		<g>
			<path d="M194.4,7.8h6.3c5.7,0,9.6,2.8,11.6,7.4c1.1,2.6,1.3,5.3-0.2,6.3c-1.3,1.1-3.9,1.5-7.9,1.5H201L194.4,7.8z M212.2,26.6     c4.2,0,7-0.4,8.8-1.1c2-0.9,3.1-2.2,3.5-4.2c0.4-1.8,0.2-3.9-0.9-6.1c-1.5-3.5-3.9-6.1-7.2-8.1c-3.3-2-7.4-2.8-12-2.8h-16.2     l7.9,18.8h-34.4l-7.9-18.8h-9l9.4,22.3C154.2,26.6,212.2,26.6,212.2,26.6z"/>
			<path d="M250.3,11.3l-1.5-3.5h6.3c5.7,0,9.6,2.8,11.6,7.7c1.1,2.6,1.3,5.3-0.2,6.3c-1.3,1.1-3.9,1.5-7.9,1.5h-13.1l1.5,3.5h19.5     c4.2,0,7-0.4,8.8-1.1c2-0.9,3.1-2.2,3.5-4.2c0.4-1.8,0.2-3.9-0.9-6.1c-1.5-3.5-3.9-6.1-7.2-8.1c-3.3-2-7.4-2.8-12.3-2.8h-15.8     l2.8,7h4.8V11.3z"/>
			<path d="M112.4,9.1h4.8l0,0h0.2h3.1l-0.2-0.9h-2.4c-0.9,0-1.3,0-1.8-0.2c-0.4-0.2-0.7-0.7-0.9-1.3c-0.4-0.9,0-1.5,1.1-1.5h2.2     l-0.2-0.7H115c-0.9,0-1.8,0.2-2,0.7c-0.4,0.4-0.4,0.9,0,1.8c0.2,0.4,0.4,0.9,0.9,1.3c0.2,0.2,0.2,0.2,0.4,0.4h-2.2L112.4,9.1z"/>
			<path d="M106.7,25.5c2.4,0.7,5.7,1.1,9.6,1.1h30.6l-9.4-22.3h-10.1l7.7,18.6h-8.5c-3.9,0-13.6-0.2-15.8-1.3s-3.3-3.5-4.4-6.1     H95.3c0.9,2.2,2.4,4.2,4.2,5.9C101.6,23.3,104,24.9,106.7,25.5"/>
		</g>
	</g>
</g>
</svg>