<?xml version="1.0" encoding="UTF-8"?>
<!-- Generator: Adobe Illustrator 27.5.0, SVG Export Plug-In . SVG Version: 6.00 Build 0)  -->
<svg version="1.1" id="Layer_1" xmlns="http://www.w3.org/2000/svg" xmlns:xlink="http://www.w3.org/1999/xlink" x="0px" y="0px" viewBox="0 0 345.6 188" style="enable-background:new 0 0 345.6 188;" xml:space="preserve">
<style type="text/css">
	.st0{fill:#2959A9;}
	.st1{fill:#00AEEF;}
	.st2{fill:#BA2529;}
</style>
<g>
	<g>
		<path d="M261.9,8.3L261.9,8.3l-15.7-0.2c-4.6,0-8.6,1-12,2.9c-3.4,1.9-5.7,4.6-7.1,8c-0.8,2.1-1.3,4.2-0.8,6.1    c0.4,1.9,1.7,3.1,3.6,4c1.7,0.8,4.6,1,8.6,1h14.3l1.5-3.6h-8.2c-4,0-6.5-0.4-7.8-1.5c-1.5-1-1.3-3.6-0.2-6.3    c1.9-4.6,5.9-7.6,11.5-7.6h6.3l-1.5,3.4h4.8L261.9,8.3L261.9,8.3z M206.1,21.3l9.7-9.4l2.1,9.4H206.1z M124,21.5l9.4-9l1.7,9H124z     M215.1,8.1L215.1,8.1h-5.9l-22.7,21.2l8.8-21.2h-9.7L174,17.3l-6.1,5h-0.2l2.9-7.1L167,8.3h-9.7l-8.8,21.2l-5-21.2h-10.7    l-23.7,22h5.9l6.1-5.9H136l1.3,5.9H153l5.7-13.6c0.2-0.6,0.6-1.5,0.8-2.3c0,0.6,0.2,1.5,0.6,2.3l5,11.3h0.8l14.5-11.3    c0.6-0.4,1.3-1.3,2.5-2.3c-0.6,1-0.8,1.9-1.3,2.3l-5.7,13.6h10.5l0,0h10.9l5.9-5.9h15.5l1.3,5.9h5.5l-5.2-22h-5.2V8.1z     M111.4,25.1c1.9-1.9,3.4-3.8,4.2-6.1c1.5-3.4,1.3-6.1-0.4-8c-1.7-1.9-4.8-2.9-9.7-2.9h-16l-1.5,3.6H99c5.7,0,7.1,2.7,5.2,7.3    c-1,2.7-2.1,5-4.4,6.3c-2.1,1-4.4,1.3-8.2,1.3h-5l3.8-9h-4.8l-5.5,12.8h14.5c4,0,7.1-0.4,9.7-1C107.2,28.2,109.5,26.9,111.4,25.1"/>
		<path class="st0" d="M69,70.8c-1.5,0.4-3.1,1-4.8,1.7c-1.7,0.6-3.4,1.3-4.8,2.1c-1.7,0.8-3.1,1.7-4.6,2.5C53.3,77.9,52,79,51,80    c-1,1-1.9,2.1-2.5,3.4s-1,2.3-1,3.6c0,1.3,0.2,2.5,0.8,3.8c0.4,1.3,1,2.3,1.9,3.1c0.8,0.8,1.7,1.7,2.7,2.1c1,0.4,2.1,0.8,3.4,0.8    s2.3-0.2,3.4-0.4c1-0.4,2.1-0.8,3.1-1.3c1-0.6,2.1-1.3,3.1-1.9c1-0.6,2.1-1.5,3.1-2.3V70.8z M74,102.3c-1.5-0.6-2.5-1.7-3.6-2.9    c-1-1.3-1.5-2.7-1.5-4.4c-1.3,1-2.5,1.9-3.8,2.9c-1.3,1-2.5,1.9-4,2.7c-1.5,0.8-2.9,1.5-4.8,2.1c-1.7,0.6-3.8,0.8-6.1,0.8    c-2.1,0-4-0.4-5.7-1s-3.1-1.7-4.4-2.7c-1.3-1.3-2.1-2.5-2.7-4.2c-0.6-1.7-1-3.4-1-5.2c0-2.3,0.4-4.4,1.5-6.3    c0.8-1.9,2.1-3.6,3.8-5c1.7-1.5,3.6-2.7,5.7-4c2.1-1,4.4-2.1,6.7-3.1c2.3-0.8,4.8-1.7,7.3-2.3c2.5-0.6,5-1.3,7.3-1.9v-3.4    c0-2.5-0.2-4.6-0.6-6.3s-0.8-3.1-1.7-4.2c-0.8-1-1.7-1.7-2.7-2.3c-1-0.4-2.5-0.6-4.2-0.6c-1.5,0-2.9,0.2-4.2,0.8    c-1.3,0.6-2.3,1.5-3.4,2.3c-1,1-1.7,2.1-2.3,3.6c-0.6,1.3-0.8,2.7-3.4,4c-2.7,1.3-7.8,0.4-7.8,0.4s1-4.4,2.3-6.3s2.9-3.4,5-4.6    c2.1-1.3,4.2-2.3,6.9-2.9c2.5-0.6,5.2-1,8-1c3.6,0,6.5,0.4,8.8,1c2.3,0.6,4.4,1.7,5.7,2.9c1.5,1.3,2.5,2.7,3.1,4.6    c0.6,1.7,0.8,3.8,0.8,5.9v33.4c0,1.7,0.4,3.1,1.5,4.4c1,1.3,2.1,2.3,3.6,2.9H74z"/>
		<path class="st0" d="M109.3,81.9c1.5,0,2.9-0.4,4.4-1c1.5-0.6,2.7-1.7,3.8-2.7c1-1.3,1.9-2.5,2.5-4.2s1-3.4,1-5.2    c0-2.7-0.4-5-1-7.3s-1.7-4.2-2.9-5.9c-1.3-1.7-2.7-2.9-4.4-4c-1.7-1-3.4-1.5-5.2-1.5s-3.4,0.4-4.6,1c-1.3,0.8-2.3,1.7-3.1,3.1    c-0.8,1.3-1.5,2.9-1.9,4.6c-0.4,1.7-0.6,3.8-0.6,5.7c0,2.5,0.2,4.6,0.8,6.7c0.6,2.1,1.5,4,2.5,5.5c1,1.5,2.3,2.7,4,3.6    C105.7,81.5,107.4,81.9,109.3,81.9 M95.9,101.9c-0.8,0.6-1.5,1.3-2.1,2.1s-1,1.5-1.5,2.3c-0.4,0.8-0.8,1.7-1,2.5    c-0.2,0.8-0.4,1.7-0.4,2.3c0,1.3,0.4,2.3,1.3,3.4c0.8,1,2.1,2.1,3.8,2.9c1.7,0.8,3.8,1.5,6.3,2.1c2.5,0.4,5.5,0.8,8.8,0.8    c3.6,0,6.7-0.2,9.7-0.8c2.9-0.6,5.2-1.3,7.3-2.3c1.9-0.8,3.6-1.9,4.6-3.1c1-1,1.5-2.3,1.5-3.4c0-1.3-0.2-2.3-0.8-3.1    c-0.6-0.8-1.5-1.7-2.7-2.1c-1.3-0.6-2.5-1-4.2-1.3c-1.7-0.2-3.6-0.4-5.7-0.4c-2.5,0-5.2,0-8-0.2c-2.7-0.2-5-0.2-7.3-0.4    c-2.3-0.2-4.2-0.4-6.1-0.6C98,102.1,96.7,102.1,95.9,101.9 M138.1,51.1v4.6h-9c1,1.5,1.9,3.1,2.5,5c0.6,1.9,1,3.8,1,5.5    c0,2.7-0.6,5.5-1.9,7.8c-1.3,2.3-2.9,4.2-5.2,5.9c-2.1,1.7-4.8,2.9-8,3.8c-3.1,0.8-6.5,1.3-10.1,1.3c-1.5,0-2.7-0.2-4.2-0.4    c-1.5-0.2-2.7-0.4-3.8-0.8c-1,0.8-1.9,1.9-2.5,2.9c-0.6,1-1,2.3-1,3.4c0,1,0.6,1.9,1.7,2.5c1.3,0.6,2.9,1,5,1l19.9,0.8    c3.1,0.2,5.9,0.4,8,1c2.1,0.6,3.8,1.5,5,2.5c1.3,1,2.1,2.3,2.7,3.6c0.6,1.5,0.8,2.9,0.8,4.8c0,3.1-0.8,5.9-2.1,8.6    c-1.5,2.5-3.6,4.8-6.3,6.5c-2.7,1.9-6.1,3.1-10.1,4.2c-4,1-8.4,1.5-13.4,1.5c-4.4,0-8.4-0.2-11.8-0.8c-3.4-0.6-6.1-1.3-8.4-2.3    c-2.3-1-3.8-2.1-5-3.6c-1-1.3-1.7-2.9-1.7-4.6c0-1.5,0.4-2.9,1-4.2c0.8-1.3,1.7-2.7,2.9-4c1.3-1.3,2.5-2.5,3.8-3.6    c1.5-1.3,2.7-2.3,4.2-3.4c-1-0.4-1.9-0.6-2.7-1c-0.8-0.4-1.7-0.8-2.3-1.5s-1-1.3-1.5-1.9c-0.4-0.6-0.6-1.3-0.6-2.1    c0-1,0.2-2.3,0.8-3.4c0.6-1.3,1.5-2.3,2.3-3.4c1-1,2.1-2.1,3.6-2.9c1.3-0.8,2.7-1.7,4.2-2.1c-3.6-1.5-6.5-3.8-8.6-6.5    c-2.1-2.7-3.1-5.9-3.1-9.4c0-2.7,0.6-5.2,1.9-7.6c1.3-2.3,2.9-4.4,5-6.1s4.6-3.1,7.6-4.2c2.9-1,6.1-1.5,9.2-1.5    c1.7,0,3.1,0.2,4.8,0.4c1.5,0.2,2.9,0.4,4.4,0.8c1.3,0.4,2.5,0.8,3.6,1.3c1,0.4,1.9,1,2.5,1.5L138.1,51.1L138.1,51.1z"/>
		<path class="st0" d="M163.5,99.6c2.1,0,4-0.6,5.9-1.7c1.7-1,3.4-2.5,4.6-4.4c1.3-1.9,2.3-4,2.9-6.5c0.6-2.5,1-5,1-7.8    c0-4-0.4-7.6-1-10.9c-0.6-3.4-1.7-6.3-3.4-9c-1.5-2.5-3.6-4.6-5.9-6.1c-2.5-1.5-5.5-2.1-8.8-2.1c-1.9,0-3.6,0.4-5.2,1.5    c-1.7,1-3.1,2.5-4.4,4.2c-1.3,1.9-2.3,4-3.1,6.3c-0.8,2.5-1.3,5-1.3,7.8c0,4,0.4,7.6,1.3,11.1c0.8,3.4,2.1,6.5,3.6,9    c1.7,2.5,3.6,4.6,5.9,6.1C157.8,98.7,160.3,99.6,163.5,99.6 M161.4,103.6c-4.2,0-8-0.6-11.5-2.1c-3.6-1.5-6.5-3.4-9-5.9    c-2.5-2.5-4.6-5.5-5.9-8.8c-1.5-3.4-2.1-6.9-2.1-10.7c0-4,0.6-7.8,2.1-11.3c1.5-3.6,3.4-6.5,5.9-9.2c2.5-2.5,5.5-4.6,9-6.1    c3.6-1.5,7.3-2.3,11.5-2.3s8,0.6,11.3,2.1c3.6,1.5,6.5,3.4,9,5.7s4.6,5.2,5.9,8.4c1.5,3.1,2.1,6.7,2.1,10.3c0,4-0.6,8-2.1,11.5    c-1.5,3.6-3.4,6.7-5.9,9.4s-5.5,4.8-9,6.3C169.3,102.7,165.3,103.6,161.4,103.6"/>
		<path class="st0" d="M222.2,99.6c2.1,0,4-0.6,5.9-1.7c1.7-1,3.4-2.5,4.6-4.4c1.3-1.9,2.3-4,2.9-6.5c0.6-2.5,1-5,1-7.8    c0-4-0.4-7.6-1-10.9c-0.6-3.4-1.7-6.3-3.4-9c-1.5-2.5-3.6-4.6-5.9-6.1c-2.5-1.5-5.5-2.1-8.8-2.1c-1.9,0-3.6,0.4-5.2,1.5    c-1.7,1-3.1,2.5-4.4,4.2c-1.3,1.9-2.3,4-3.1,6.3c-0.8,2.5-1.3,5-1.3,7.8c0,4,0.4,7.6,1.3,11.1c0.8,3.4,2.1,6.5,3.6,9    c1.7,2.5,3.6,4.6,5.9,6.1C216.6,98.7,219.3,99.6,222.2,99.6 M220.1,103.6c-4.2,0-8-0.6-11.5-2.1c-3.6-1.5-6.5-3.4-9-5.9    c-2.5-2.5-4.6-5.5-5.9-8.8c-1.5-3.4-2.1-6.9-2.1-10.7c0-4,0.6-7.8,2.1-11.3c1.5-3.6,3.4-6.5,5.9-9.2c2.5-2.5,5.5-4.6,9-6.1    c3.6-1.5,7.3-2.3,11.5-2.3s8,0.6,11.3,2.1c3.6,1.5,6.5,3.4,9,5.7s4.6,5.2,5.9,8.4c1.5,3.1,2.1,6.7,2.1,10.3c0,4-0.6,8-2.1,11.5    c-1.5,3.6-3.4,6.7-5.9,9.4s-5.5,4.8-9,6.3C228.1,102.7,224.3,103.6,220.1,103.6"/>
		<path class="st0" d="M258.5,47.1h3.1V58c3.4-3.6,6.7-6.5,10.3-8.2c3.6-1.9,7.1-2.7,10.7-2.7c1.9,0,3.8,0.4,5.2,1.3    c1.7,0.8,3.1,2.1,4.4,3.6c1.3,1.5,2.1,3.1,2.9,5.2c0.6,1.9,1,4.2,1,6.3v38.8h-10.7V65.4c0-1.9-0.2-3.4-0.6-4.8    c-0.4-1.3-1-2.5-1.9-3.4c-0.8-0.8-1.7-1.7-2.7-2.1s-2.1-0.6-3.4-0.6c-1,0-2.3,0.2-3.6,0.6c-1.3,0.4-2.5,0.8-4,1.7    c-1.3,0.6-2.7,1.5-4,2.5c-1.3,1-2.5,2.1-3.8,3.1v32.5c0,4.2-3.4,7.6-7.6,7.6H251V50.4L258.5,47.1z"/>
		<path class="st0" d="M337.9,81.3c-0.8-1.7-2.1-3.1-3.6-4.4c-1.5-1.3-3.1-2.5-5-3.4c-1.9-1-3.8-1.9-5.7-2.7c-1.9-0.8-4-1.7-5.9-2.5    c-1.9-0.8-3.6-1.7-5-2.7c-1.5-1-2.7-2.1-3.6-3.1c-0.8-1.3-1.3-2.5-1.3-4.2c0-1,0.2-1.9,0.8-2.7c0.4-0.8,1.3-1.7,2.1-2.3    c0.8-0.6,1.9-1.3,3.1-1.5c1.3-0.4,2.5-0.4,4-0.6c1.5,0,2.7,0.2,4,0.8c1.3,0.6,2.3,1.5,3.4,2.3c1,1,1.7,2.1,2.3,3.6    c0.6,1.3,0.8,2.7,3.4,4c2.7,1.3,7.8,0.4,7.8,0.4s-1-4.4-2.3-6.3c-1.3-1.9-2.9-3.4-5-4.6s-4.2-2.3-6.9-2.9c-2.1-0.6-4.2-1-6.3-1    l0,0c-0.2,0-0.2,0-0.4,0s-0.4,0-0.6,0l0,0c-2.3,0-4.4,0.4-6.3,1c-2.3,0.8-4.2,1.9-5.9,3.1c-1.7,1.3-2.9,2.9-3.8,4.8    s-1.5,3.8-1.5,6.1s0.4,4.2,1.3,6.1c0.8,1.7,1.9,3.1,3.4,4.6c1.3,1.3,2.9,2.5,4.6,3.4c1.7,1,3.6,1.9,5.2,2.7    c1.9,0.8,3.6,1.7,5.2,2.5c1.7,0.8,3.4,1.7,4.6,2.7c1.3,1,2.5,2.1,3.4,3.4s1.3,2.7,1.3,4.4c0,1-0.2,2.1-0.8,2.9    c-0.4,1-1.3,1.9-2.1,2.5c-0.8,0.8-1.9,1.3-3.1,1.7c-1.3,0.4-2.5,0.6-4,0.6c-1,0-2.3-0.2-3.1-0.4c-0.4-0.2-0.8-0.2-1-0.4    c-1.3-0.6-2.3-1.5-3.4-2.3c-1-1-1.7-2.1-2.3-3.6c-0.6-1.3-0.8-2.7-3.4-4c-2.7-1.3-7.8-0.4-7.8-0.4s1,4.4,2.3,6.3    c1.3,1.9,2.9,3.4,5,4.6c2.1,1.3,4.2,2.3,6.9,2.9c2.3,0.6,4.4,1,6.9,1l0,0c3.6,0,6.5-0.4,9-1.3c2.5-0.8,4.6-2.1,6.5-3.6    c1.7-1.5,2.9-3.1,3.8-5.2c0.8-1.9,1.3-4.2,1.3-6.5C339.1,84.9,338.7,83,337.9,81.3"/>
		<path class="st1" d="M301.6,116.4c-7.6,2.7-14.5,5.2-24.8,5.2c-26.4,0-53.7-18.9-76.6-6.1c28.8-4.6,48.5,14.3,77,11.1    C286.2,125.6,294.4,122.2,301.6,116.4"/>
		<path class="st1" d="M244.1,127.5c-22.7,1-38-4-55-10.1c-14.7-4.2-32.7-5.9-44.3,4.2c12.2-4.6,25.4-2.9,36.3,0.2    C191.2,125,218.2,137.3,244.1,127.5"/>
		<path class="st0" d="M35.8,124.5c-7.3-3.8-8-6.7-8-11.3v-1.3v-0.2V42.3c0.2-8.6-10.7-10.7-10.7-10.7v77.2l0,0v0.4    c-0.2,5.9-5,10.5-10.5,10.5H4.6v1.7c9.4,0.2,19.5,2.9,29.2,8.2c48.1,26.2,84.4,27.9,108.7-4.6C142.3,124.7,103.2,159.4,35.8,124.5    "/>
	</g>
	<g>
		<g>
			<path class="st2" d="M166.6,177.9c-1.3-1.3-1.7-3.1-1.7-5.7V160l-8,18.3h-1.3l-9.9-18.9v18.9h-1.9v-22.9h4.4l8.8,17l7.6-17h4.8     v17c0,2.1,0.2,3.8,0.6,4.8c0.4,1,1,1.7,2.1,1.9v0.8C169.8,179.7,167.9,179.1,166.6,177.9z"/>
			<path class="st2" d="M182.8,177.2c-1.9-1-3.4-2.5-4.2-4.4c-1-1.9-1.5-4-1.5-6.1c0-2.3,0.4-4.4,1.5-6.1c1-1.9,2.5-3.4,4.2-4.4     c1.9-1,4-1.7,6.3-1.7c2.3,0,4.4,0.6,6.3,1.7c1.9,1,3.1,2.5,4.2,4.4c1,1.9,1.5,4,1.5,6.1c0,2.3-0.4,4.4-1.5,6.1     c-1,1.7-2.3,3.4-4.2,4.4c-1.9,1-4,1.7-6.3,1.7C186.8,178.9,184.7,178.3,182.8,177.2z M194.3,174.5c1.3-1.9,1.9-4.4,1.9-7.8     c0-3.4-0.6-5.9-1.9-7.8c-1.3-1.9-2.9-2.7-5.2-2.7c-2.3,0-4,0.8-5,2.7c-1.3,1.9-1.9,4.4-1.9,7.8c0,3.4,0.6,5.9,1.9,7.8     c1.3,1.9,2.9,2.7,5,2.7C191.4,177.2,193.1,176.4,194.3,174.5z"/>
			<path class="st2" d="M222,177.2c-1-0.8-2.3-2.1-3.4-3.8l-3.6-5.9h-1.5v10.5h-4.8v-18.5c0-1.3-0.2-2.1-0.4-2.5     c-0.4-0.6-1-0.8-2.1-0.8h-0.4v-1h10.1c2.5,0,4.8,0.4,6.7,1.3s3.1,2.5,3.1,5c0,1.7-0.6,2.9-1.7,3.8c-1,0.8-2.5,1.5-4.2,1.9     l3.8,6.1c1.5,2.3,2.9,3.6,4.6,3.8v0.8c-0.2,0-0.6,0.2-1,0.2c-0.4,0-1,0-1.5,0C224.3,178.5,223.1,178.1,222,177.2z M215.7,166.3     c1.3,0,2.5-0.4,3.6-1.3c1-0.8,1.5-1.9,1.5-3.6c0-1.7-0.4-2.9-1.5-3.6c-1-0.6-2.1-1.3-3.4-1.3c-0.6,0-1.5,0-2.3,0.2v9.4H215.7z"/>
			<path class="st2" d="M237.8,177.2c-1.9-1-3.4-2.5-4.2-4.4c-1-1.9-1.5-4-1.5-6.1c0-2.3,0.4-4.4,1.5-6.1c1-1.9,2.5-3.4,4.2-4.4     c1.9-1,4-1.7,6.3-1.7s4.4,0.6,6.3,1.7c1.9,1,3.1,2.5,4.2,4.4c1,1.9,1.5,4,1.5,6.1c0,2.3-0.4,4.4-1.5,6.1s-2.3,3.4-4.2,4.4     c-1.9,1-4,1.7-6.3,1.7S239.6,178.3,237.8,177.2z M249.1,174.5c1.3-1.9,1.9-4.4,1.9-7.8c0-3.4-0.6-5.9-1.9-7.8     c-1.3-1.9-2.9-2.7-5.2-2.7s-4,0.8-5,2.7c-1.3,1.9-1.9,4.4-1.9,7.8c0,3.4,0.6,5.9,1.9,7.8c1.3,1.9,2.9,2.7,5,2.7     C246.2,177.2,248,176.4,249.1,174.5z"/>
			<path class="st2" d="M267.1,177.2c-1.9-1-3.1-2.5-4.2-4.2c-1-1.7-1.5-3.8-1.5-6.1c0-2.3,0.4-4.4,1.5-6.3c1-1.9,2.5-3.4,4.4-4.4     c1.9-1,4-1.7,6.1-1.7c2.1,0,4,0.2,5.5,0.8c1.5,0.4,2.5,1.3,3.4,2.1c0.4,0.6,0.6,1.3,0.8,1.9s0.2,1.9,0.2,3.4h-1     c-0.4-2.1-1.3-3.8-2.5-4.8c-1.3-1-2.9-1.7-4.8-1.7c-2.5,0-4.4,0.8-5.9,2.5c-1.5,1.7-2.1,4.4-2.1,8.4c0,2.9,0.6,5.5,1.9,7.3     c1.3,1.9,3.4,2.9,6.1,2.9c1.7,0,3.4-0.4,4.6-1.3c1.5-0.8,2.5-2.1,3.4-3.8l1.3,0.8c-1.3,1.9-2.5,3.4-4.2,4.2     c-1.7,0.8-3.8,1.3-6.3,1.3C271.1,178.9,269,178.3,267.1,177.2z"/>
			<path class="st2" d="M294.9,177.2c-1.9-1-3.1-2.5-4.2-4.2c-1-1.7-1.5-3.8-1.5-6.1c0-2.3,0.4-4.4,1.5-6.3s2.5-3.4,4.4-4.4     c1.9-1,4-1.7,6.1-1.7s4,0.2,5.5,0.8c1.5,0.4,2.5,1.3,3.4,2.1c0.4,0.6,0.6,1.3,0.8,1.9c0.2,0.6,0.2,1.9,0.2,3.4h-1     c-0.4-2.1-1.3-3.8-2.5-4.8c-1.3-1-2.9-1.7-4.8-1.7c-2.5,0-4.4,0.8-5.9,2.5c-1.5,1.7-2.1,4.4-2.1,8.4c0,2.9,0.6,5.5,1.9,7.3     c1.3,1.9,3.4,2.9,6.1,2.9c1.7,0,3.4-0.4,4.6-1.3c1.5-0.8,2.5-2.1,3.4-3.8l1.3,0.8c-1.3,1.9-2.5,3.4-4.2,4.2     c-1.7,0.8-3.8,1.3-6.3,1.3C298.8,178.9,296.7,178.3,294.9,177.2z"/>
			<path class="st2" d="M322.8,177.2c-1.9-1-3.4-2.5-4.2-4.4c-1-1.9-1.5-4-1.5-6.1c0-2.3,0.4-4.4,1.5-6.1c1-1.9,2.5-3.4,4.2-4.4     c1.9-1,4-1.7,6.3-1.7s4.4,0.6,6.3,1.7c1.9,1,3.1,2.5,4.2,4.4c1,1.9,1.5,4,1.5,6.1c0,2.3-0.4,4.4-1.5,6.1c-1,1.7-2.3,3.4-4.2,4.4     c-1.9,1-4,1.7-6.3,1.7C326.8,178.9,324.7,178.3,322.8,177.2z M334.3,174.5c1.3-1.9,1.9-4.4,1.9-7.8c0-3.4-0.6-5.9-1.9-7.8     c-1.3-1.9-2.9-2.7-5.2-2.7s-4,0.8-5,2.7c-1.3,1.9-1.9,4.4-1.9,7.8c0,3.4,0.6,5.9,1.9,7.8c1.3,1.9,2.9,2.7,5,2.7     C331.4,177.2,333.1,176.4,334.3,174.5z"/>
		</g>
	</g>
</g>
</svg>